<svg xmlns="http://www.w3.org/2000/svg" width="31" height="51" viewBox="0 0 31 51">
  <g id="drop" transform="translate(-338 -416)">
    <path id="Combined_Shape_Copy_104" data-name="Combined Shape Copy 104" d="M0-14.5a4.507,4.507,0,0,0,.134,1.094h0l.007.022a4.467,4.467,0,0,0,.18.553L4.5,0,8.62-12.687A4.483,4.483,0,0,0,9-14.5,4.5,4.5,0,0,0,4.5-19,4.5,4.5,0,0,0,0-14.5Z" transform="translate(338 435)" fill="#fff"/>
    <path id="Combined_Shape_Copy_119" data-name="Combined Shape Copy 119" d="M0-14.5a4.507,4.507,0,0,0,.134,1.094h0l.007.022a4.467,4.467,0,0,0,.18.553L4.5,0,8.62-12.687A4.483,4.483,0,0,0,9-14.5,4.5,4.5,0,0,0,4.5-19,4.5,4.5,0,0,0,0-14.5Z" transform="translate(360 467)" fill="#fff"/>
  </g>
</svg>
