<svg xmlns="http://www.w3.org/2000/svg" width="20" height="20" viewBox="0 0 20 20">
  <g id="icon_error" transform="translate(-267 -15)">
    <circle id="Oval" cx="10" cy="10" r="10" transform="translate(267 15)" fill="#ffa1cd"/>
    <path id="_" data-name="!" d="M1.168,11.424a1.116,1.116,0,0,1-.816-.336A1.062,1.062,0,0,1,0,10.272a1.015,1.015,0,0,1,.352-.815,1.1,1.1,0,0,1,.816-.32,1.136,1.136,0,0,1,.848.32,1.065,1.065,0,0,1,.336.815,1.121,1.121,0,0,1-.336.833A1.264,1.264,0,0,1,1.168,11.424Zm.64-3.232H.544L.176,0h2L1.808,8.191Z" transform="translate(276 19)" fill="#fff"/>
  </g>
</svg>
